<?xml version="1.0" encoding="utf-8"?>
<!-- Generator: Adobe Illustrator 27.1.0, SVG Export Plug-In . SVG Version: 6.00 Build 0)  -->
<svg version="1.1" id="Capa_1" xmlns="http://www.w3.org/2000/svg" xmlns:xlink="http://www.w3.org/1999/xlink" x="0px" y="0px"
	 viewBox="0 0 24 24" style="enable-background:new 0 0 24 24;" xml:space="preserve">
<style type="text/css">
	.st0{fill:none;}
	.st1{fill:#FFFFFF;stroke:#000000;stroke-miterlimit:10;}
</style>
<path class="st0" d="M0,0h24v24H0V0z"/>
<path class="st1" d="M12.5,2c3.1,0,5.3,1.8,5.9,4.6C20.1,7.8,21,9.7,21,12c0,2.9-2.7,5.4-5.8,5.5l-0.2,0h-1.8l-0.5,2.8
	c-0.2,0.9-0.9,1.5-1.8,1.6l-0.2,0H8.1c-0.5,0-0.9-0.2-1.2-0.5c-0.3-0.3-0.4-0.7-0.3-1.1l0-0.3H5c-1,0-1.9-0.9-2-1.9L3,18l0-0.1l2-14
	l0,0C5.1,3,5.8,2.2,6.7,2l0.2,0L7,2C7,2,12.5,2,12.5,2z M18.3,9.4L18.3,9.4c-0.7,2.5-3.1,4.5-5.6,4.6l-0.2,0H10v0.1l0,0.2l-1.2,5
	c0,0,0,0,0,0.1l-0.1,0.6h2.2l0.6-3.6c0.1-0.4,0.4-0.8,0.9-0.8l0.1,0H15c2.1,0,4-1.7,4-3.5C19,11,18.8,10.1,18.3,9.4z"/>
</svg>
