<?xml version="1.0" encoding="utf-8"?>
<!-- Generator: Adobe Illustrator 27.1.0, SVG Export Plug-In . SVG Version: 6.00 Build 0)  -->
<svg version="1.1" id="Capa_1" xmlns="http://www.w3.org/2000/svg" xmlns:xlink="http://www.w3.org/1999/xlink" x="0px" y="0px"
	 viewBox="0 0 24 24" style="enable-background:new 0 0 24 24;" xml:space="preserve">
<style type="text/css">
	.st0{fill:none;}
	.st1{fill:#FFFFFF;stroke:#FFFFFF;stroke-miterlimit:10;}
</style>
<path class="st0" d="M0,0h24v24H0V0z"/>
<path class="st1" d="M15,3l0.1,0c2,0.2,3.5,0.7,5,1.7c0.2,0.1,0.3,0.3,0.4,0.5c1.9,5.3,2.4,10,1.5,12.3c-1,2-2.6,3.6-4.4,3.6
	c-0.7,0-1.7-1-2.3-2c0.7-0.1,1.4-0.3,2.1-0.5c0.5-0.2,0.8-0.7,0.7-1.2s-0.7-0.8-1.2-0.7c-3.3,1-6.1,1-9.4,0
	c-0.5-0.2-1.1,0.2-1.2,0.7s0.2,1.1,0.7,1.2c0.7,0.2,1.4,0.4,2.1,0.5c-0.6,1.1-1.6,2-2.3,2c-1.8,0-3.4-1.5-4.4-3.6
	c-0.9-2.2-0.4-6.9,1.5-12.2C3.6,5,3.8,4.8,3.9,4.7c1.4-1,3-1.5,5-1.7c0.4,0,0.7,0.1,0.9,0.4l0.1,0.1l0.7,1.3l0.1,0
	c0.9-0.1,1.8-0.1,2.6,0l0.1,0l0.6-1.3c0.1-0.3,0.4-0.5,0.8-0.5C14.9,3,15,3,15,3z M9,10c-1,0-1.8,0.7-2,1.7l0,0.2L7,12l0,0.1
	c0.1,1.1,1,1.9,2.1,1.8c1.1-0.1,1.9-1,1.8-2.1C10.9,10.8,10,10,9,10z M15,10c-1,0-1.8,0.7-2,1.7l0,0.2l0,0.1l0,0.1
	c0.1,1.1,1,1.9,2.1,1.8c1.1-0.1,1.9-1,1.8-2.1C16.9,10.8,16,10,15,10z"/>
</svg>
