<?xml version="1.0" encoding="utf-8"?>
<!-- Generator: Adobe Illustrator 27.1.0, SVG Export Plug-In . SVG Version: 6.00 Build 0)  -->
<svg version="1.1" id="Capa_1" xmlns="http://www.w3.org/2000/svg" xmlns:xlink="http://www.w3.org/1999/xlink" x="0px" y="0px"
	 viewBox="0 0 1360.6 1360.6" style="enable-background:new 0 0 1360.6 1360.6;" xml:space="preserve">
<style type="text/css">
	.st0{fill:#FFFFFF;}
	.st1{fill:none;}
	.st2{fill:#FFFFFF;stroke:#FFFFFF;stroke-width:100.2581;stroke-linecap:round;stroke-linejoin:round;}
	.st3{stroke:#FFFFFF;stroke-width:88.4221;stroke-miterlimit:10;}
</style>
<path class="st0" d="M767.9,322.9c8,0,15.6,2.9,21.3,8.2l2.7,2.8l113.8,135.6h16c48.9,0,89.2,36.3,92.1,82.8l0.2,5.2v117.2
	c0,16.2-13.8,29.3-30.8,29.3h-36c-17,45.8-69.8,69.8-117.8,53.6c-26.3-8.9-46.9-28.5-56.2-53.6H639.7c-17,45.8-69.8,69.8-117.8,53.6
	c-26.3-8.9-46.9-28.5-56.2-53.6h-36c-17,0-30.8-13.1-30.8-29.3V498.7l0.2-3.4l0.2-1.6l0.5-2.3l0.4-1.1l0.4-1.5l61.9-147.5
	c4.7-11.1,16-18.4,28.5-18.4H767.9z M552.6,645.3c-17,0-30.8,13.1-30.8,29.3s13.8,29.3,30.8,29.3c17,0,30.8-13.1,30.8-29.3
	S569.6,645.3,552.6,645.3 M860.2,645.3c-17,0-30.8,13.1-30.8,29.3s13.8,29.3,30.8,29.3c17,0,30.8-13.1,30.8-29.3
	S877.2,645.3,860.2,645.3 M675.7,381.5H511.9L475,469.4h200.7V381.5z M753.2,381.5h-16v87.9H827L753.2,381.5z"/>
<path class="st1" d="M0,0h1360.6v1360.6H0V0z"/>
<path class="st2" d="M290.8,368.3v-98.6c0-54.4,45.7-98.6,102-98.6h102"/>
<path class="st2" d="M290.8,762.5v98.6c0,54.4,45.7,98.6,102,98.6h102"/>
<path class="st2" d="M902.7,171.1h102c56.3,0,102,44.1,102,98.6v98.6"/>
<path class="st2" d="M902.7,959.6h102c56.3,0,102-44.1,102-98.6v-98.6"/>
<line class="st3" x1="311.3" y1="935.7" x2="1101.9" y2="179"/>
<g>
	<g>
		<path class="st0" d="M266,1204.2v-132.6h10.1l79.8,115.2h-5.3v-115.2h12.1v132.6h-10.1L273,1089h5.3v115.2H266z"/>
		<path class="st0" d="M450.8,1205.4c-8.7,0-16.8-1.7-24.2-5c-7.4-3.3-13.9-8.1-19.3-14.2c-5.4-6.1-9.7-13.3-12.7-21.4
			c-3-8.1-4.5-17.1-4.5-26.8c0-9.7,1.5-18.7,4.5-26.8c3-8.1,7.3-15.3,12.7-21.4c5.4-6.1,11.9-10.9,19.2-14.2c7.4-3.3,15.5-5,24.3-5
			c8.7,0,16.7,1.7,24.1,5c7.4,3.3,13.8,8.1,19.2,14.1s9.7,13.2,12.7,21.4c3,8.2,4.5,17.2,4.5,26.9c0,9.7-1.5,18.7-4.5,26.9
			c-3,8.2-7.3,15.3-12.7,21.4c-5.4,6.1-11.9,10.8-19.2,14.1C467.6,1203.7,459.5,1205.4,450.8,1205.4z M450.8,1192.8
			c6.9,0,13.3-1.4,19.2-4.1c5.9-2.7,11-6.6,15.4-11.6c4.3-5,7.7-10.8,10.2-17.4c2.4-6.6,3.6-13.9,3.6-21.9c0-8-1.2-15.3-3.6-21.9
			c-2.4-6.6-5.8-12.4-10.2-17.4c-4.4-5-9.5-8.8-15.4-11.6c-5.9-2.7-12.3-4.1-19.2-4.1s-13.4,1.4-19.3,4.1
			c-5.9,2.7-11.1,6.6-15.5,11.6c-4.4,5-7.8,10.8-10.2,17.4c-2.4,6.6-3.6,13.9-3.6,21.9c0,7.8,1.2,15.1,3.6,21.8
			c2.4,6.7,5.8,12.5,10.2,17.5c4.4,5,9.6,8.8,15.5,11.6C437.5,1191.5,443.9,1192.8,450.8,1192.8z"/>
		<path class="st0" d="M582.1,1204.2v-132.6h12.2v132.6H582.1z"/>
		<path class="st0" d="M632,1204.2v-132.6h10.1l52.8,103.5h-5.3l52.3-103.5H752v132.6h-11.7v-111.6h2.8l-48.2,94.7h-5.8l-48.6-94.7
			h3.1v111.6H632z"/>
		<path class="st0" d="M771.2,1204.2l52.8-132.6h12.1l52.8,132.6h-12.9l-48.6-124.5h5l-48.6,124.5H771.2z M792,1168.8l3.6-11.4h67.2
			l3.6,11.4H792z"/>
		<path class="st0" d="M958.8,1205.4c-8.8,0-16.9-1.7-24.4-5c-7.4-3.3-13.9-8.1-19.3-14.1c-5.5-6.1-9.7-13.2-12.7-21.4
			c-3-8.2-4.5-17.2-4.5-26.9c0-9.7,1.5-18.7,4.5-26.9c3-8.2,7.3-15.3,12.8-21.4c5.5-6.1,12-10.8,19.4-14.1c7.4-3.3,15.5-5,24.4-5
			c8.8,0,16.9,1.6,24.2,4.7c7.3,3.2,13.6,8,18.7,14.4l-7.6,8.9c-4.8-5.6-10.2-9.5-16-11.9c-5.8-2.4-12.1-3.6-18.8-3.6
			c-7.2,0-13.7,1.4-19.7,4.1c-6,2.7-11.2,6.6-15.7,11.6c-4.5,5-7.9,10.8-10.4,17.4c-2.5,6.6-3.7,13.9-3.7,21.9
			c0,7.8,1.2,15.1,3.7,21.8c2.5,6.7,5.9,12.5,10.4,17.5c4.5,5,9.7,8.8,15.7,11.6c6,2.7,12.5,4.1,19.6,4.1c6.6,0,12.9-1.1,18.7-3.4
			c5.9-2.3,11.3-6.1,16.3-11.6l6.9,10.6c-5.5,5.6-11.9,9.8-19.3,12.6C974.5,1203.9,966.8,1205.4,958.8,1205.4z M989.5,1186.8v-48.9
			h11.7v50.6L989.5,1186.8z"/>
		<path class="st0" d="M1048,1192.1h69.5v12.1h-81.7v-132.6h79.3v12.1h-67V1192.1z M1046.6,1130.9h61.1v11.9h-61.1V1130.9z"/>
	</g>
</g>
</svg>
