<?xml version="1.0" encoding="utf-8"?>
<!-- Generator: Adobe Illustrator 27.1.0, SVG Export Plug-In . SVG Version: 6.00 Build 0)  -->
<svg version="1.1" id="Capa_1" xmlns="http://www.w3.org/2000/svg" xmlns:xlink="http://www.w3.org/1999/xlink" x="0px" y="0px"
	 viewBox="0 0 24 24" style="enable-background:new 0 0 24 24;" xml:space="preserve">
<style type="text/css">
	.st0{fill:none;}
	.st1{fill:none;stroke:#FFFFFF;stroke-width:1.5;stroke-linecap:round;stroke-linejoin:round;}
</style>
<path class="st0" d="M0,0h24v24H0V0z"/>
<path class="st1" d="M4,8c0-2.2,1.8-4,4-4h8c2.2,0,4,1.8,4,4v8c0,2.2-1.8,4-4,4H8c-2.2,0-4-1.8-4-4V8z"/>
<path class="st1" d="M9,12c0,1.7,1.3,3,3,3s3-1.3,3-3s-1.3-3-3-3S9,10.3,9,12"/>
<path class="st1" d="M16.5,7.5L16.5,7.5"/>
</svg>
